<?xml version="1.0" encoding="utf-8"?>
<!-- Generator: Adobe Illustrator 25.0.0, SVG Export Plug-In . SVG Version: 6.00 Build 0)  -->
<svg version="1.0" id="Calque_1" xmlns="http://www.w3.org/2000/svg" xmlns:xlink="http://www.w3.org/1999/xlink" x="0px" y="0px"
	 width="59.4px" height="11.4px" viewBox="0 0 59.4 11.4" enable-background="new 0 0 59.4 11.4" xml:space="preserve">
<path id="d2k6AEiBM7" fill="#212121" stroke="#E9B701" stroke-width="0.5" d="M0.3,0.4h58.8V11H0.3V0.4z"/>
<g>
	<line fill="none" x1="0" y1="10.4" x2="0" y2="1.5"/>
	<line fill="none" x1="58.6" y1="1.5" x2="58.6" y2="10.4"/>
</g>
<g>
	<line fill="none" x1="10.7" y1="9.9" x2="10.7" y2="2.2"/>
	<line fill="none" x1="58.8" y1="2.2" x2="58.8" y2="9.9"/>
</g>
<g>
	<path fill="#FFFFFF" d="M4.6,3.1h1.3v5H4.6V3.1z M5.1,3.1h4.1V4H5.1V3.1z M5.1,5.2h3.5v0.9H5.1V5.2z"/>
	<path fill="#FFFFFF" d="M10.9,7.9c-0.4-0.2-0.7-0.4-0.9-0.6C9.8,7,9.7,6.6,9.7,6.3V4.9c0-0.4,0.1-0.7,0.3-1
		c0.2-0.3,0.5-0.5,0.9-0.6C11.2,3.1,11.7,3,12.2,3c0.5,0,0.9,0.1,1.3,0.2c0.4,0.2,0.7,0.4,0.9,0.6c0.2,0.3,0.3,0.6,0.3,1v1.4
		c0,0.4-0.1,0.7-0.3,1c-0.2,0.3-0.5,0.5-0.9,0.6s-0.8,0.2-1.3,0.2C11.7,8.1,11.2,8,10.9,7.9z M12.8,7.1C13,7,13.1,6.9,13.2,6.7
		s0.1-0.3,0.1-0.5V4.8c0-0.2,0-0.3-0.1-0.5S13,4.1,12.8,4.1C12.6,4,12.4,4,12.2,4s-0.4,0-0.6,0.1c-0.2,0.1-0.3,0.2-0.4,0.3
		S11,4.7,11,4.8v1.5c0,0.2,0,0.3,0.1,0.5s0.2,0.2,0.4,0.3c0.2,0.1,0.4,0.1,0.6,0.1S12.6,7.1,12.8,7.1z"/>
	<path fill="#FFFFFF" d="M15.7,3.1h1.6l2.6,3.8L19.8,7V3.1H21v5h-1.6l-2.6-3.7L17,4.2V8h-1.2V3.1z"/>
	<path fill="#FFFFFF" d="M22.3,3.1h1.3v5h-1.3V3.1z M23,7.1h1.7c0.4,0,0.8-0.1,1-0.2C25.9,6.8,26,6.6,26,6.3V4.8
		c0-0.3-0.1-0.5-0.4-0.6S25.1,4,24.6,4H23V3.1h1.6c0.6,0,1.1,0.1,1.5,0.2c0.4,0.1,0.7,0.3,0.9,0.6c0.2,0.3,0.3,0.6,0.3,1v1.4
		c0,0.4-0.1,0.7-0.3,0.9c-0.2,0.3-0.5,0.5-0.9,0.6C25.7,8,25.2,8,24.6,8H23V7.1z"/>
	<path fill="#FFFFFF" d="M30.1,3.1H31l2.6,5h-1.4l-1.7-3.4L28.9,8h-1.4L30.1,3.1z M28.8,6.3h3.6v0.9h-3.6V6.3z"/>
	<path fill="#FFFFFF" d="M33.1,3.1h5.1V4h-5.1V3.1z M35,3.5h1.3V8H35V3.5z"/>
	<path fill="#FFFFFF" d="M38.5,3.1h1.3v5h-1.3V3.1z M38.9,3.1h4.2V4h-4.2V3.1z M38.9,5.1h3.6V6h-3.6V5.1z M38.9,7.1h4.2V8h-4.2V7.1z
		"/>
	<path fill="#FFFFFF" d="M45.1,7.9c-0.4-0.1-0.7-0.4-0.9-0.6C44.1,7,44,6.6,44,6.3V3.1h1.3v3.2c0,0.3,0.1,0.5,0.3,0.7
		c0.2,0.2,0.5,0.2,0.9,0.2c0.4,0,0.7-0.1,0.9-0.2c0.2-0.2,0.3-0.4,0.3-0.7V3.1H49v3.2c0,0.4-0.1,0.7-0.3,1c-0.2,0.3-0.5,0.5-0.9,0.6
		C47.5,8,47,8.1,46.5,8.1S45.5,8,45.1,7.9z"/>
	<path fill="#FFFFFF" d="M50.1,3.1h1.3v5h-1.3V3.1z M50.6,5.1H53c0.1,0,0.2,0,0.4-0.1s0.2-0.1,0.2-0.2c0.1-0.1,0.1-0.2,0.1-0.3
		c0-0.1,0-0.2-0.1-0.3c-0.1-0.1-0.1-0.2-0.2-0.2C53.3,4,53.1,4,53,4h-2.4V3.1h2.5c0.4,0,0.7,0.1,1,0.2s0.5,0.3,0.7,0.5
		C54.9,4,55,4.3,55,4.6s-0.1,0.6-0.2,0.8c-0.2,0.2-0.4,0.4-0.7,0.5S53.5,6,53.1,6h-2.5V5.1z M52.1,5.9l1.4-0.2L55.3,8h-1.6L52.1,5.9
		z"/>
</g>
</svg>
