<?xml version="1.0" encoding="utf-8"?>
<!-- Generator: Adobe Illustrator 25.0.0, SVG Export Plug-In . SVG Version: 6.00 Build 0)  -->
<svg version="1.0" id="Calque_1" xmlns="http://www.w3.org/2000/svg" xmlns:xlink="http://www.w3.org/1999/xlink" x="0px" y="0px"
	 width="59.4px" height="11.4px" viewBox="0 0 59.4 11.4" enable-background="new 0 0 59.4 11.4" xml:space="preserve">
<path id="d2k6AEiBM7" fill="#762885" stroke="#E9B701" stroke-width="0.5" d="M0.3,0.4h58.8V11H0.3V0.4z"/>
<g>
	<line fill="none" x1="0" y1="10.4" x2="0" y2="1.5"/>
	<line fill="none" x1="58.6" y1="1.5" x2="58.6" y2="10.4"/>
</g>
<g>
	<line fill="none" x1="10.7" y1="9.9" x2="10.7" y2="2.2"/>
	<line fill="none" x1="58.8" y1="2.2" x2="58.8" y2="9.9"/>
</g>
<g>
	<path fill="#FFFFFF" d="M2.1,7.9C1.8,7.8,1.5,7.6,1.4,7.4C1.2,7.1,1.1,6.8,1.1,6.5V5.3c0-0.3,0.1-0.6,0.3-0.9s0.4-0.4,0.7-0.5
		s0.7-0.2,1.2-0.2c0.4,0,0.7,0.1,1,0.2C4.6,4,4.8,4.2,5,4.4s0.3,0.5,0.4,0.8H4.2C4.2,5.1,4.1,5,4,4.9C3.9,4.8,3.8,4.7,3.7,4.6
		S3.4,4.5,3.3,4.5c-0.2,0-0.4,0-0.5,0.1S2.5,4.8,2.4,4.9S2.3,5.2,2.3,5.3v1.2c0,0.2,0,0.3,0.1,0.4C2.5,7,2.6,7.1,2.7,7.2
		c0.1,0.1,0.3,0.1,0.5,0.1c0.2,0,0.3,0,0.4-0.1S3.9,7.1,4,7c0.1-0.1,0.2-0.2,0.2-0.4h1.2C5.3,6.9,5.2,7.2,5,7.4
		C4.8,7.6,4.5,7.8,4.3,7.9s-0.6,0.2-1,0.2C2.8,8.1,2.4,8,2.1,7.9z"/>
	<path fill="#FFFFFF" d="M6.9,7.9C6.6,7.8,6.4,7.6,6.2,7.3C6,7.1,5.9,6.8,5.9,6.5V5.3C5.9,5,6,4.7,6.2,4.5c0.2-0.2,0.4-0.4,0.8-0.6
		c0.3-0.1,0.7-0.2,1.1-0.2s0.8,0.1,1.1,0.2S9.8,4.3,10,4.5c0.2,0.2,0.3,0.5,0.3,0.8v1.2c0,0.3-0.1,0.6-0.3,0.8
		C9.8,7.6,9.5,7.8,9.2,7.9S8.5,8.1,8.1,8.1S7.3,8,6.9,7.9z M8.6,7.2C8.8,7.1,8.9,7,9,6.9C9,6.8,9.1,6.7,9.1,6.5V5.3
		C9.1,5.1,9,5,9,4.9C8.9,4.8,8.8,4.7,8.6,4.6S8.3,4.5,8.1,4.5s-0.4,0-0.5,0.1S7.3,4.8,7.2,4.9C7.1,5,7.1,5.1,7.1,5.3v1.2
		c0,0.1,0,0.3,0.1,0.4C7.3,7,7.4,7.1,7.5,7.2c0.2,0.1,0.3,0.1,0.5,0.1S8.4,7.3,8.6,7.2z"/>
	<path fill="#FFFFFF" d="M14,6.1v0.8h-2.9V6.1H14z"/>
	<path fill="#FFFFFF" d="M15,3.8h1.1V8H15V3.8z M15.4,3.8h3.5v0.8h-3.5V3.8z M15.4,5.6h3v0.8h-3V5.6z"/>
	<path fill="#FFFFFF" d="M20.4,7.9c-0.3-0.1-0.6-0.3-0.8-0.6c-0.2-0.2-0.3-0.5-0.3-0.8V5.3c0-0.3,0.1-0.6,0.3-0.8
		c0.2-0.2,0.4-0.4,0.8-0.6c0.3-0.1,0.7-0.2,1.1-0.2s0.8,0.1,1.1,0.2s0.6,0.3,0.8,0.6c0.2,0.2,0.3,0.5,0.3,0.8v1.2
		c0,0.3-0.1,0.6-0.3,0.8c-0.2,0.2-0.4,0.4-0.8,0.6s-0.7,0.2-1.1,0.2S20.7,8,20.4,7.9z M22,7.2c0.2-0.1,0.3-0.1,0.4-0.3
		c0.1-0.1,0.1-0.2,0.1-0.4V5.3c0-0.1,0-0.3-0.1-0.4c-0.1-0.1-0.2-0.2-0.4-0.3s-0.3-0.1-0.5-0.1s-0.4,0-0.5,0.1s-0.3,0.1-0.4,0.3
		c-0.1,0.1-0.1,0.2-0.1,0.4v1.2c0,0.1,0,0.3,0.1,0.4C20.7,7,20.8,7.1,21,7.2c0.2,0.1,0.3,0.1,0.5,0.1S21.9,7.3,22,7.2z"/>
	<path fill="#FFFFFF" d="M24.5,3.8h1.4l2.2,3.3L28,7.1V3.8h1.1V8h-1.4l-2.2-3.2l0.1-0.1V8h-1.1V3.8z"/>
	<path fill="#FFFFFF" d="M30.2,3.8h1.1V8h-1.1V3.8z M30.7,7.3h1.4c0.4,0,0.7-0.1,0.9-0.2c0.2-0.1,0.3-0.3,0.3-0.5V5.3
		c0-0.2-0.1-0.4-0.3-0.5s-0.5-0.2-0.9-0.2h-1.4V3.8h1.4c0.5,0,0.9,0.1,1.3,0.2c0.3,0.1,0.6,0.3,0.8,0.5c0.2,0.2,0.3,0.5,0.3,0.8v1.2
		c0,0.3-0.1,0.6-0.3,0.8c-0.2,0.2-0.4,0.4-0.8,0.5S32.6,8,32.1,8h-1.4V7.3z"/>
	<path fill="#FFFFFF" d="M36.9,3.8h0.7L39.9,8h-1.2l-1.4-2.9L35.8,8h-1.2L36.9,3.8z M35.7,6.6h3.1v0.8h-3.1V6.6z"/>
	<path fill="#FFFFFF" d="M39.4,3.8h4.3v0.8h-4.3V3.8z M41,4.1h1.1V8H41V4.1z"/>
	<path fill="#FFFFFF" d="M44.2,3.8h1.1V8h-1.1V3.8z M44.6,3.8h3.6v0.8h-3.6V3.8z M44.6,5.5h3.1v0.8h-3.1V5.5z M44.6,7.3h3.6V8h-3.6
		V7.3z"/>
	<path fill="#FFFFFF" d="M49.9,7.9c-0.3-0.1-0.6-0.3-0.7-0.5c-0.2-0.2-0.3-0.5-0.3-0.9V3.8H50v2.7c0,0.2,0.1,0.4,0.3,0.6
		c0.2,0.1,0.4,0.2,0.8,0.2c0.3,0,0.6-0.1,0.8-0.2C52,7,52.1,6.8,52.1,6.5V3.8h1.1v2.7c0,0.3-0.1,0.6-0.3,0.9
		c-0.2,0.2-0.4,0.4-0.7,0.5C51.9,8,51.5,8.1,51,8.1C50.6,8.1,50.2,8,49.9,7.9z"/>
	<path fill="#FFFFFF" d="M54.1,3.8h1.1V8h-1.1V3.8z M54.6,5.6h2.1c0.1,0,0.2,0,0.3-0.1s0.2-0.1,0.2-0.2c0-0.1,0.1-0.2,0.1-0.3
		c0-0.1,0-0.2-0.1-0.3c0-0.1-0.1-0.1-0.2-0.2s-0.2-0.1-0.3-0.1h-2.1V3.8h2.1c0.3,0,0.6,0.1,0.9,0.2s0.4,0.3,0.6,0.4s0.2,0.4,0.2,0.7
		s-0.1,0.5-0.2,0.7s-0.3,0.3-0.6,0.4c-0.2,0.1-0.5,0.2-0.9,0.2h-2.1V5.6z M55.8,6.2L57,6.1l1.6,2h-1.4L55.8,6.2z"/>
</g>
</svg>
