<?xml version="1.0" encoding="utf-8"?>
<!-- Generator: Adobe Illustrator 25.0.0, SVG Export Plug-In . SVG Version: 6.00 Build 0)  -->
<svg version="1.0" id="Calque_1" xmlns="http://www.w3.org/2000/svg" xmlns:xlink="http://www.w3.org/1999/xlink" x="0px" y="0px"
	 width="59.4px" height="11.4px" viewBox="0 0 59.4 11.4" enable-background="new 0 0 59.4 11.4" xml:space="preserve">
<path id="d2k6AEiBM7" fill="#424242" stroke="#E9B701" stroke-width="0.5" d="M0.3,0.4h58.8V11H0.3V0.4z"/>
<g>
	<line fill="none" x1="0" y1="10.4" x2="0" y2="1.5"/>
	<line fill="none" x1="58.6" y1="1.5" x2="58.6" y2="10.4"/>
</g>
<g>
	<line fill="none" x1="10.7" y1="9.9" x2="10.7" y2="2.2"/>
	<line fill="none" x1="58.8" y1="2.2" x2="58.8" y2="9.9"/>
</g>
<g>
	<path fill="#FFFFFF" d="M17.8,3.8h1.5V8h-1V4.7l0,0.2l-1.1,2.6h-1L15,5l0-0.2V8h-1V3.8h1.5l1.1,2.9L17.8,3.8z"/>
	<path fill="#FFFFFF" d="M20.3,3.8h1.1V8h-1.1V3.8z M20.7,3.8h3.6v0.8h-3.6V3.8z M20.7,5.5h3.1v0.8h-3.1V5.5z M20.7,7.3h3.6V8h-3.6
		V7.3z"/>
	<path fill="#FFFFFF" d="M28.8,3.8h1.5V8h-1V4.7l0,0.2l-1.1,2.6h-1L26.1,5l0-0.2V8h-1V3.8h1.5l1.1,2.9L28.8,3.8z"/>
	<path fill="#FFFFFF" d="M31.4,3.8h1.1V8h-1.1V3.8z M31.9,7.3h1.9c0.3,0,0.5,0,0.6-0.1c0.1-0.1,0.2-0.2,0.2-0.4v0
		c0-0.1,0-0.2-0.1-0.3s-0.2-0.1-0.3-0.2c-0.1,0-0.3-0.1-0.4-0.1h-1.9V5.5h1.9c0.2,0,0.4,0,0.5-0.1c0.1-0.1,0.2-0.2,0.2-0.4
		c0-0.1-0.1-0.2-0.2-0.3c-0.1-0.1-0.3-0.1-0.5-0.1h-1.9V3.8h1.9c0.4,0,0.7,0,1,0.1s0.5,0.2,0.6,0.4s0.2,0.4,0.2,0.6
		c0,0.2,0,0.3-0.1,0.4c-0.1,0.1-0.2,0.2-0.4,0.3c-0.2,0.1-0.4,0.1-0.6,0.2c0.3,0,0.5,0.1,0.7,0.2s0.3,0.2,0.4,0.3
		c0.1,0.1,0.1,0.3,0.1,0.5v0c0,0.2-0.1,0.5-0.2,0.6c-0.1,0.2-0.4,0.3-0.6,0.4C34.6,8,34.3,8,33.9,8h-2V7.3z"/>
	<path fill="#FFFFFF" d="M36.6,3.8h1.1V8h-1.1V3.8z M37,5.6h2.1c0.1,0,0.2,0,0.3-0.1s0.2-0.1,0.2-0.2c0-0.1,0.1-0.2,0.1-0.3
		c0-0.1,0-0.2-0.1-0.3c0-0.1-0.1-0.1-0.2-0.2s-0.2-0.1-0.3-0.1H37V3.8h2.1c0.3,0,0.6,0.1,0.9,0.2s0.4,0.3,0.6,0.4s0.2,0.4,0.2,0.7
		s-0.1,0.5-0.2,0.7S40.3,6.1,40,6.2c-0.2,0.1-0.5,0.2-0.9,0.2H37V5.6z M38.3,6.2l1.2-0.1L41,8h-1.4L38.3,6.2z"/>
	<path fill="#FFFFFF" d="M41.8,3.8h1.1V8h-1.1V3.8z M42.2,3.8h3.6v0.8h-3.6V3.8z M42.2,5.5h3.1v0.8h-3.1V5.5z M42.2,7.3h3.6V8h-3.6
		V7.3z"/>
</g>
</svg>
