<?xml version="1.0" encoding="utf-8"?>
<!-- Generator: Adobe Illustrator 25.0.0, SVG Export Plug-In . SVG Version: 6.00 Build 0)  -->
<svg version="1.0" id="Calque_1" xmlns="http://www.w3.org/2000/svg" xmlns:xlink="http://www.w3.org/1999/xlink" x="0px" y="0px"
	 width="59.4px" height="11.4px" viewBox="0 0 59.4 11.4" enable-background="new 0 0 59.4 11.4" xml:space="preserve">
<path id="d2k6AEiBM7" fill="#047F36" stroke="#E9B701" stroke-width="0.5" d="M0.3,0.4h58.8V11H0.3V0.4z"/>
<g>
	<line fill="none" x1="0" y1="10.4" x2="0" y2="1.5"/>
	<line fill="none" x1="58.6" y1="1.5" x2="58.6" y2="10.4"/>
</g>
<g>
	<line fill="none" x1="10.7" y1="9.9" x2="10.7" y2="2.2"/>
	<line fill="none" x1="58.8" y1="2.2" x2="58.8" y2="9.9"/>
</g>
<g>
	<path fill="#FFFFFF" d="M19.8,3.8h0.7L22.8,8h-1.2l-1.4-2.9L18.7,8h-1.2L19.8,3.8z M18.6,6.6h3.1v0.8h-3.1V6.6z"/>
	<path fill="#FFFFFF" d="M23.3,3.8h1.1V8h-1.1V3.8z M23.9,7.3h1.4c0.4,0,0.7-0.1,0.9-0.2c0.2-0.1,0.3-0.3,0.3-0.5V5.3
		c0-0.2-0.1-0.4-0.3-0.5s-0.5-0.2-0.9-0.2h-1.4V3.8h1.4c0.5,0,0.9,0.1,1.3,0.2c0.3,0.1,0.6,0.3,0.8,0.5c0.2,0.2,0.3,0.5,0.3,0.8v1.2
		c0,0.3-0.1,0.6-0.3,0.8c-0.2,0.2-0.4,0.4-0.8,0.5S25.8,8,25.3,8h-1.4V7.3z"/>
	<path fill="#FFFFFF" d="M32.2,3.8h1.5V8h-1V4.7l0,0.2l-1.1,2.6h-1L29.5,5l0-0.2V8h-1V3.8H30l1.1,2.9L32.2,3.8z"/>
	<path fill="#FFFFFF" d="M35.9,8h-1.2V3.8h1.2V8z"/>
	<path fill="#FFFFFF" d="M36.9,3.8h1.4l2.2,3.3l-0.1,0.1V3.8h1.1V8H40l-2.2-3.2l0.1-0.1V8h-1.1V3.8z"/>
</g>
</svg>
