<?xml version="1.0" encoding="utf-8"?>
<!-- Generator: Adobe Illustrator 25.0.0, SVG Export Plug-In . SVG Version: 6.00 Build 0)  -->
<svg version="1.0" id="Calque_1" xmlns="http://www.w3.org/2000/svg" xmlns:xlink="http://www.w3.org/1999/xlink" x="0px" y="0px"
	 width="59.4px" height="11.4px" viewBox="0 0 59.4 11.4" enable-background="new 0 0 59.4 11.4" xml:space="preserve">
<path id="d2k6AEiBM7" fill="#AA6E14" stroke="#E9B701" stroke-width="0.5" d="M0.3,0.4h58.8V11H0.3V0.4z"/>
<g>
	<line fill="none" x1="0" y1="10.4" x2="0" y2="1.5"/>
	<line fill="none" x1="58.6" y1="1.5" x2="58.6" y2="10.4"/>
</g>
<g>
	<line fill="none" x1="10.7" y1="9.9" x2="10.7" y2="2.2"/>
	<line fill="none" x1="58.8" y1="2.2" x2="58.8" y2="9.9"/>
</g>
<g>
	<path fill="#FFFFFF" d="M2.7,3.8h1.1V8H2.7V3.8z M3.2,5.6h2.1c0.1,0,0.2,0,0.3-0.1s0.2-0.1,0.2-0.2c0-0.1,0.1-0.2,0.1-0.3
		c0-0.1,0-0.2-0.1-0.3c0-0.1-0.1-0.1-0.2-0.2S5.4,4.6,5.3,4.6H3.2V3.8h2.1c0.3,0,0.6,0.1,0.9,0.2C6.4,4,6.6,4.2,6.8,4.4S7,4.8,7,5.1
		S6.9,5.5,6.8,5.7S6.4,6.1,6.2,6.2C6,6.3,5.7,6.3,5.3,6.3H3.2V5.6z M4.4,6.2l1.2-0.1l1.6,2H5.9L4.4,6.2z"/>
	<path fill="#FFFFFF" d="M8,3.8h1.1V8H8V3.8z M8.4,3.8h3.6v0.8H8.4V3.8z M8.4,5.5h3.1v0.8H8.4V5.5z M8.4,7.3h3.6V8H8.4V7.3z"/>
	<path fill="#FFFFFF" d="M13.8,8c-0.3,0-0.5-0.1-0.8-0.2c-0.2-0.1-0.5-0.2-0.6-0.3l0.5-0.7c0.2,0.1,0.5,0.2,0.8,0.3
		c0.3,0.1,0.6,0.1,0.9,0.1c0.4,0,0.6,0,0.8-0.1c0.2-0.1,0.3-0.2,0.3-0.4v0c0-0.1,0-0.2-0.1-0.3c-0.1-0.1-0.2-0.1-0.4-0.1
		c-0.1,0-0.3-0.1-0.6-0.1c0,0,0,0,0,0s0,0,0,0l-0.1,0c-0.4,0-0.7-0.1-1-0.2s-0.5-0.2-0.7-0.4c-0.2-0.2-0.3-0.4-0.3-0.7v0
		c0-0.3,0.1-0.5,0.3-0.7c0.2-0.2,0.4-0.3,0.7-0.4c0.3-0.1,0.7-0.2,1.2-0.2c0.2,0,0.4,0,0.6,0.1s0.4,0.1,0.6,0.2
		c0.2,0.1,0.4,0.1,0.6,0.2l-0.5,0.7c-0.2-0.1-0.5-0.2-0.7-0.3c-0.2-0.1-0.5-0.1-0.7-0.1c-0.3,0-0.6,0-0.8,0.1
		c-0.2,0.1-0.3,0.2-0.3,0.3v0c0,0.1,0,0.2,0.1,0.3c0.1,0.1,0.2,0.1,0.4,0.2c0.1,0,0.3,0.1,0.6,0.1c0,0,0,0,0,0s0,0,0,0c0,0,0,0,0,0
		c0,0,0,0,0,0c0.4,0.1,0.7,0.1,0.9,0.2c0.3,0.1,0.5,0.2,0.6,0.4c0.2,0.2,0.3,0.4,0.3,0.7v0c0,0.3-0.1,0.5-0.3,0.7
		c-0.2,0.2-0.4,0.3-0.8,0.4c-0.3,0.1-0.7,0.2-1.2,0.2C14.3,8.1,14.1,8.1,13.8,8z"/>
	<path fill="#FFFFFF" d="M17.6,3.8h1.1V8h-1.1V3.8z M18.1,5.6H20c0.1,0,0.3,0,0.4-0.1c0.1,0,0.2-0.1,0.2-0.2
		c0.1-0.1,0.1-0.2,0.1-0.3c0-0.1,0-0.2-0.1-0.3s-0.1-0.1-0.2-0.2c-0.1,0-0.2-0.1-0.4-0.1h-1.9V3.8H20c0.4,0,0.7,0.1,1,0.2
		s0.5,0.3,0.7,0.5s0.2,0.4,0.2,0.7s-0.1,0.5-0.2,0.7s-0.4,0.3-0.7,0.5s-0.6,0.2-1,0.2h-1.9V5.6z"/>
	<path fill="#FFFFFF" d="M23.4,7.9c-0.3-0.1-0.6-0.3-0.8-0.6c-0.2-0.2-0.3-0.5-0.3-0.8V5.3c0-0.3,0.1-0.6,0.3-0.8
		c0.2-0.2,0.4-0.4,0.8-0.6c0.3-0.1,0.7-0.2,1.1-0.2s0.8,0.1,1.1,0.2s0.6,0.3,0.8,0.6c0.2,0.2,0.3,0.5,0.3,0.8v1.2
		c0,0.3-0.1,0.6-0.3,0.8c-0.2,0.2-0.4,0.4-0.8,0.6S25,8.1,24.5,8.1S23.7,8,23.4,7.9z M25.1,7.2c0.2-0.1,0.3-0.1,0.4-0.3
		c0.1-0.1,0.1-0.2,0.1-0.4V5.3c0-0.1,0-0.3-0.1-0.4c-0.1-0.1-0.2-0.2-0.4-0.3s-0.3-0.1-0.5-0.1s-0.4,0-0.5,0.1s-0.3,0.1-0.4,0.3
		c-0.1,0.1-0.1,0.2-0.1,0.4v1.2c0,0.1,0,0.3,0.1,0.4C23.7,7,23.9,7.1,24,7.2c0.2,0.1,0.3,0.1,0.5,0.1S24.9,7.3,25.1,7.2z"/>
	<path fill="#FFFFFF" d="M27.6,3.8H29l2.2,3.3l-0.1,0.1V3.8h1.1V8h-1.4l-2.2-3.2l0.1-0.1V8h-1.1V3.8z"/>
	<path fill="#FFFFFF" d="M34.3,8c-0.3,0-0.5-0.1-0.8-0.2c-0.2-0.1-0.5-0.2-0.6-0.3l0.5-0.7c0.2,0.1,0.5,0.2,0.8,0.3
		c0.3,0.1,0.6,0.1,0.9,0.1c0.4,0,0.6,0,0.8-0.1c0.2-0.1,0.3-0.2,0.3-0.4v0c0-0.1,0-0.2-0.1-0.3c-0.1-0.1-0.2-0.1-0.4-0.1
		s-0.3-0.1-0.6-0.1c0,0,0,0,0,0s0,0,0,0l-0.1,0c-0.4,0-0.7-0.1-1-0.2s-0.5-0.2-0.7-0.4c-0.2-0.2-0.3-0.4-0.3-0.7v0
		c0-0.3,0.1-0.5,0.3-0.7c0.2-0.2,0.4-0.3,0.7-0.4c0.3-0.1,0.7-0.2,1.2-0.2c0.2,0,0.4,0,0.6,0.1c0.2,0,0.4,0.1,0.6,0.2
		C36.8,4,37,4.1,37.2,4.2l-0.5,0.7c-0.2-0.1-0.5-0.2-0.7-0.3s-0.5-0.1-0.7-0.1c-0.3,0-0.6,0-0.8,0.1c-0.2,0.1-0.3,0.2-0.3,0.3v0
		c0,0.1,0,0.2,0.1,0.3c0.1,0.1,0.2,0.1,0.4,0.2c0.1,0,0.3,0.1,0.6,0.1c0,0,0,0,0,0c0,0,0,0,0,0c0,0,0,0,0,0c0,0,0,0,0,0
		c0.4,0.1,0.7,0.1,0.9,0.2s0.5,0.2,0.6,0.4s0.3,0.4,0.3,0.7v0c0,0.3-0.1,0.5-0.3,0.7c-0.2,0.2-0.4,0.3-0.8,0.4s-0.7,0.2-1.2,0.2
		C34.8,8.1,34.5,8.1,34.3,8z"/>
	<path fill="#FFFFFF" d="M39.8,3.8h0.7L42.8,8h-1.2l-1.4-2.9L38.8,8h-1.2L39.8,3.8z M38.7,6.6h3.1v0.8h-3.1V6.6z"/>
	<path fill="#FFFFFF" d="M43.3,3.8h1.1V8h-1.1V3.8z M43.8,7.3h1.9c0.3,0,0.5,0,0.6-0.1s0.2-0.2,0.2-0.4v0c0-0.1,0-0.2-0.1-0.3
		c-0.1-0.1-0.2-0.1-0.3-0.2s-0.3-0.1-0.4-0.1h-1.9V5.5h1.9c0.2,0,0.4,0,0.5-0.1c0.1-0.1,0.2-0.2,0.2-0.4c0-0.1-0.1-0.2-0.2-0.3
		c-0.1-0.1-0.3-0.1-0.5-0.1h-1.9V3.8h1.9c0.4,0,0.7,0,1,0.1s0.5,0.2,0.6,0.4c0.1,0.2,0.2,0.4,0.2,0.6c0,0.2,0,0.3-0.1,0.4
		S47.2,5.6,47,5.7s-0.4,0.1-0.6,0.2c0.3,0,0.5,0.1,0.7,0.2c0.2,0.1,0.3,0.2,0.4,0.3s0.1,0.3,0.1,0.5v0c0,0.2-0.1,0.5-0.2,0.6
		s-0.3,0.3-0.6,0.4C46.5,8,46.2,8,45.8,8h-2V7.3z"/>
	<path fill="#FFFFFF" d="M48.5,3.8h1.1V8h-1.1V3.8z M49,7.3h3.5V8H49V7.3z"/>
	<path fill="#FFFFFF" d="M53.1,3.8h1.1V8h-1.1V3.8z M53.5,3.8H57v0.8h-3.6V3.8z M53.5,5.5h3.1v0.8h-3.1V5.5z M53.5,7.3H57V8h-3.6
		V7.3z"/>
</g>
</svg>
